{"asset":{"version":"2.0","generator":"VECTARY"},"nodes":[{"translation":[0,0,0],"scale":[0.001,0.001,0.001],"rotation":[-0.7071067811865475,0,0,0.7071067811865476],"name":"Cd","children":[1,2,3,4,5,6]},{"translation":[0,0,0],"scale":[1,1,1],"rotation":[0.7071067811865475,0,0,0.7071067811865476],"name":"Front","mesh":0},{"translation":[0,0,0],"scale":[1,1,1],"rotation":[0.7071067811865475,0,0,0.7071067811865476],"name":"Right","mesh":1},{"translation":[0,0,0],"scale":[1,1,1],"rotation":[0.7071067811865475,0,0,0.7071067811865476],"name":"Back","mesh":2},{"translation":[0,0,0],"scale":[1,1,1],"rotation":[0.7071067811865475,0,0,0.7071067811865476],"name":"Left","mesh":3},{"translation":[0,0,0],"scale":[1,1,1],"rotation":[0.7071067811865475,0,0,0.7071067811865476],"name":"Top","mesh":4},{"translation":[0,0,0],"scale":[1,1,1],"rotation":[0.7071067811865475,0,0,0.7071067811865476],"name":"Bottom","mesh":5}],"materials":[{"pbrMetallicRoughness":{"baseColorFactor":[1,1,1,1],"baseColorTexture":{"index":0,"extensions":{"KHR_texture_transform":{"offset":[0,0],"scale":[1,1],"rotation":0}},"texCoord":0},"metallicFactor":0,"roughnessFactor":0.7},"name":"Box","emissiveFactor":[0,0,0],"extensions":{},"alphaMode":"OPAQUE","doubleSided":false},{"pbrMetallicRoughness":{"baseColorFactor":[1,1,1,1],"baseColorTexture":{"index":0,"extensions":{"KHR_texture_transform":{"offset":[0,0],"scale":[1,1],"rotation":0}},"texCoord":0},"metallicFactor":0,"roughnessFactor":0.7},"name":"Box","emissiveFactor":[0,0,0],"extensions":{},"alphaMode":"OPAQUE","doubleSided":false},{"pbrMetallicRoughness":{"baseColorFactor":[1,1,1,1],"baseColorTexture":{"index":0,"extensions":{"KHR_texture_transform":{"offset":[0,0],"scale":[1,1],"rotation":0}},"texCoord":0},"metallicFactor":0,"roughnessFactor":0.7},"name":"Box","emissiveFactor":[0,0,0],"extensions":{},"alphaMode":"OPAQUE","doubleSided":false},{"pbrMetallicRoughness":{"baseColorFactor":[1,1,1,1],"baseColorTexture":{"index":0,"extensions":{"KHR_texture_transform":{"offset":[0,0],"scale":[1,1],"rotation":0}},"texCoord":0},"metallicFactor":0,"roughnessFactor":0.7},"name":"Box","emissiveFactor":[0,0,0],"extensions":{},"alphaMode":"OPAQUE","doubleSided":false},{"pbrMetallicRoughness":{"baseColorFactor":[1,1,1,1],"baseColorTexture":{"index":0,"extensions":{"KHR_texture_transform":{"offset":[0,0],"scale":[1,1],"rotation":0}},"texCoord":0},"metallicFactor":0,"roughnessFactor":0.7},"name":"Box","emissiveFactor":[0,0,0],"extensions":{},"alphaMode":"OPAQUE","doubleSided":false},{"pbrMetallicRoughness":{"baseColorFactor":[1,1,1,1],"baseColorTexture":{"index":0,"extensions":{"KHR_texture_transform":{"offset":[0,0],"scale":[1,1],"rotation":0}},"texCoord":0},"metallicFactor":0,"roughnessFactor":0.7},"name":"Box","emissiveFactor":[0,0,0],"extensions":{},"alphaMode":"OPAQUE","doubleSided":false}],"textures":[{"sampler":0,"source":0}],"images":[{"uri":"Box-color.png","mimeType":"image/png"}],"samplers":[{"wrapS":10497,"wrapT":10497}],"meshes":[{"primitives":[{"mode":4,"attributes":{"POSITION":1,"NORMAL":2,"TEXCOORD_0":3},"material":0,"indices":0}]},{"primitives":[{"mode":4,"attributes":{"POSITION":5,"NORMAL":6,"TEXCOORD_0":7},"material":1,"indices":4}]},{"primitives":[{"mode":4,"attributes":{"POSITION":9,"NORMAL":10,"TEXCOORD_0":11},"material":2,"indices":8}]},{"primitives":[{"mode":4,"attributes":{"POSITION":13,"NORMAL":14,"TEXCOORD_0":15},"material":3,"indices":12}]},{"primitives":[{"mode":4,"attributes":{"POSITION":17,"NORMAL":18,"TEXCOORD_0":19},"material":4,"indices":16}]},{"primitives":[{"mode":4,"attributes":{"POSITION":21,"NORMAL":22,"TEXCOORD_0":23},"material":5,"indices":20}]}],"accessors":[{"bufferView":0,"byteOffset":0,"componentType":5125,"count":6,"type":"SCALAR"},{"bufferView":1,"byteOffset":0,"componentType":5126,"count":4,"max":[0.5,0.5703830122947693,0.5],"min":[-0.5,0.5351859927177429,0.5],"type":"VEC3"},{"bufferView":2,"byteOffset":0,"componentType":5126,"count":4,"type":"VEC3"},{"bufferView":3,"byteOffset":0,"componentType":5126,"count":4,"type":"VEC2"},{"bufferView":4,"byteOffset":0,"componentType":5125,"count":6,"type":"SCALAR"},{"bufferView":5,"byteOffset":0,"componentType":5126,"count":4,"max":[0.5,0.5703830122947693,0.5],"min":[0.5,0.5351859927177429,-0.5],"type":"VEC3"},{"bufferView":6,"byteOffset":0,"componentType":5126,"count":4,"type":"VEC3"},{"bufferView":7,"byteOffset":0,"componentType":5126,"count":4,"type":"VEC2"},{"bufferView":8,"byteOffset":0,"componentType":5125,"count":6,"type":"SCALAR"},{"bufferView":9,"byteOffset":0,"componentType":5126,"count":4,"max":[0.5,0.5703830122947693,-0.5],"min":[-0.5,0.5351859927177429,-0.5],"type":"VEC3"},{"bufferView":10,"byteOffset":0,"componentType":5126,"count":4,"type":"VEC3"},{"bufferView":11,"byteOffset":0,"componentType":5126,"count":4,"type":"VEC2"},{"bufferView":12,"byteOffset":0,"componentType":5125,"count":6,"type":"SCALAR"},{"bufferView":13,"byteOffset":0,"componentType":5126,"count":4,"max":[-0.5,0.5703830122947693,0.5],"min":[-0.5,0.5351859927177429,-0.5],"type":"VEC3"},{"bufferView":14,"byteOffset":0,"componentType":5126,"count":4,"type":"VEC3"},{"bufferView":15,"byteOffset":0,"componentType":5126,"count":4,"type":"VEC2"},{"bufferView":16,"byteOffset":0,"componentType":5125,"count":6,"type":"SCALAR"},{"bufferView":17,"byteOffset":0,"componentType":5126,"count":4,"max":[0.5,0.5703830122947693,0.5],"min":[-0.5,0.5703830122947693,-0.5],"type":"VEC3"},{"bufferView":18,"byteOffset":0,"componentType":5126,"count":4,"type":"VEC3"},{"bufferView":19,"byteOffset":0,"componentType":5126,"count":4,"type":"VEC2"},{"bufferView":20,"byteOffset":0,"componentType":5125,"count":6,"type":"SCALAR"},{"bufferView":21,"byteOffset":0,"componentType":5126,"count":4,"max":[0.5,0.5351859927177429,0.5],"min":[-0.5,0.5351859927177429,-0.5],"type":"VEC3"},{"bufferView":22,"byteOffset":0,"componentType":5126,"count":4,"type":"VEC3"},{"bufferView":23,"byteOffset":0,"componentType":5126,"count":4,"type":"VEC2"}],"bufferViews":[{"buffer":0,"byteOffset":0,"byteLength":24,"target":34963},{"buffer":0,"byteOffset":24,"byteLength":48,"target":34962},{"buffer":0,"byteOffset":72,"byteLength":48,"target":34962},{"buffer":0,"byteOffset":120,"byteLength":32,"target":34962},{"buffer":0,"byteOffset":152,"byteLength":24,"target":34963},{"buffer":0,"byteOffset":176,"byteLength":48,"target":34962},{"buffer":0,"byteOffset":224,"byteLength":48,"target":34962},{"buffer":0,"byteOffset":272,"byteLength":32,"target":34962},{"buffer":0,"byteOffset":304,"byteLength":24,"target":34963},{"buffer":0,"byteOffset":328,"byteLength":48,"target":34962},{"buffer":0,"byteOffset":376,"byteLength":48,"target":34962},{"buffer":0,"byteOffset":424,"byteLength":32,"target":34962},{"buffer":0,"byteOffset":456,"byteLength":24,"target":34963},{"buffer":0,"byteOffset":480,"byteLength":48,"target":34962},{"buffer":0,"byteOffset":528,"byteLength":48,"target":34962},{"buffer":0,"byteOffset":576,"byteLength":32,"target":34962},{"buffer":0,"byteOffset":608,"byteLength":24,"target":34963},{"buffer":0,"byteOffset":632,"byteLength":48,"target":34962},{"buffer":0,"byteOffset":680,"byteLength":48,"target":34962},{"buffer":0,"byteOffset":728,"byteLength":32,"target":34962},{"buffer":0,"byteOffset":760,"byteLength":24,"target":34963},{"buffer":0,"byteOffset":784,"byteLength":48,"target":34962},{"buffer":0,"byteOffset":832,"byteLength":48,"target":34962},{"buffer":0,"byteOffset":880,"byteLength":32,"target":34962}],"scene":0,"scenes":[{"nodes":[0],"name":"wolf_anime"}],"extensionsUsed":["KHR_texture_transform"],"buffers":[{"byteLength":912,"uri":"ProjectName.bin"}]}